<svg version="1.1" id="Layer_1" xmlns="http://www.w3.org/2000/svg" xmlns:xlink="http://www.w3.org/1999/xlink" x="0px" y="0px"
	 width="100%" viewBox="0 0 360 360" enable-background="new 0 0 360 360" xml:space="preserve">
<path fill="#024BAD" opacity="1.000000" stroke="none" 
	d="
M361.000000,163.000000 
	C361.000000,175.354233 361.000000,187.708450 360.630371,200.680923 
	C359.899933,203.429062 359.491730,205.552155 359.185089,207.689819 
	C348.310699,283.492401 289.571869,344.493042 214.301559,358.181366 
	C209.844254,358.991943 205.432800,360.054626 201.000000,361.000000 
	C188.645767,361.000000 176.291550,361.000000 163.319550,360.630249 
	C159.908005,359.834045 157.107895,359.445007 154.321335,358.975647 
	C98.448021,349.564697 55.077766,321.493744 26.011532,272.445740 
	C11.582171,248.096848 4.748534,221.419876 2.650384,193.300034 
	C0.830937,168.915405 3.230963,145.128876 11.101862,121.968391 
	C20.520456,94.253761 36.991398,71.228485 58.111065,51.218155 
	C87.793762,23.094582 122.816277,6.815883 163.536774,2.840643 
	C169.362228,2.271948 175.179138,1.615717 181.000000,0.999999 
	C181.444443,1.000000 181.888901,1.000000 182.852020,1.393770 
	C191.484238,2.471380 199.662872,2.716114 207.701218,3.907432 
	C282.615997,15.010120 341.362274,70.240891 357.204834,144.275818 
	C358.537323,150.502777 359.738037,156.757935 361.000000,163.000000 
M106.963707,160.512756 
	C104.308449,150.947540 101.947258,141.284775 98.825073,131.874481 
	C97.843277,128.915390 94.991982,124.592361 92.698235,124.397179 
	C82.909920,123.564285 73.010002,124.042770 62.669815,124.042770 
	C65.554909,133.370224 68.284988,142.213959 71.025749,151.054367 
	C84.645447,194.985123 98.313515,238.901016 111.806679,282.870605 
	C112.937378,286.555176 114.637848,288.034485 118.454231,287.895721 
	C124.610817,287.671844 130.798889,287.557190 136.939651,287.940887 
	C140.575378,288.168091 141.846115,286.585754 142.820648,283.536835 
	C153.346649,250.604630 163.952103,217.697830 174.549820,184.788589 
	C176.250519,179.507385 178.019943,174.248337 180.152847,167.780472 
	C180.764801,169.639374 180.949951,170.188766 181.126770,170.740814 
	C193.090927,208.095749 205.107208,245.434219 216.929092,282.834137 
	C218.006195,286.241669 219.302872,287.694275 223.034012,287.483002 
	C229.012939,287.144470 235.043289,287.107666 241.017014,287.489441 
	C245.209930,287.757385 246.942261,286.321777 248.180664,282.284332 
	C259.339142,245.905792 270.735016,209.600021 282.075226,173.277252 
	C286.894806,157.840027 291.747681,142.413177 296.734894,126.504837 
	C303.718414,128.874710 310.335327,131.120193 317.985596,133.716324 
	C311.020752,115.068115 304.474854,97.541573 297.836029,79.766220 
	C281.204498,89.672066 265.185944,99.212830 248.438507,109.187714 
	C255.819855,111.935402 262.080811,114.266045 267.590027,116.316833 
	C255.549377,157.787766 243.677414,198.677704 231.602692,240.265976 
	C226.890991,225.658813 222.458237,211.809341 217.955719,197.982590 
	C210.992477,176.599228 204.105820,155.189133 196.863831,133.900192 
	C195.709534,130.506927 193.565338,126.475601 190.683411,124.819786 
	C180.261948,118.832085 168.304749,123.874931 164.576706,135.228973 
	C153.381287,169.325394 142.250748,203.443100 131.080307,237.547745 
	C130.716919,238.657227 130.195038,239.714813 129.432037,241.557220 
	C121.808723,214.202454 114.440773,187.763992 106.963707,160.512756 
z"/>
<path fill="#FEFEFF" opacity="1.000000" stroke="none" 
	d="
M180.531342,0.999999 
	C175.179138,1.615717 169.362228,2.271948 163.536774,2.840643 
	C122.816277,6.815883 87.793762,23.094582 58.111065,51.218155 
	C36.991398,71.228485 20.520456,94.253761 11.101862,121.968391 
	C3.230963,145.128876 0.830937,168.915405 2.650384,193.300034 
	C4.748534,221.419876 11.582171,248.096848 26.011532,272.445740 
	C55.077766,321.493744 98.448021,349.564697 154.321335,358.975647 
	C157.107895,359.445007 159.908005,359.834045 162.850891,360.630249 
	C109.033661,361.000000 55.067314,361.000000 1.100974,361.000000 
	C1.067317,360.867096 1.004161,360.734192 1.004156,360.601288 
	C0.999964,240.842636 1.000000,121.084000 1.000000,1.000000 
	C60.687168,1.000000 120.374924,1.000000 180.531342,0.999999 
z"/>
<path fill="#FEFEFF" opacity="1.000000" stroke="none" 
	d="
M361.000000,162.531342 
	C359.738037,156.757935 358.537323,150.502777 357.204834,144.275818 
	C341.362274,70.240891 282.615997,15.010120 207.701218,3.907432 
	C199.662872,2.716114 191.484238,2.471380 183.185333,1.393770 
	C242.256912,1.000000 301.513824,1.000000 361.000000,1.000000 
	C361.000000,54.687344 361.000000,108.375015 361.000000,162.531342 
z"/>
<path fill="#FEFEFF" opacity="1.000000" stroke="none" 
	d="
M201.468658,361.000000 
	C205.432800,360.054626 209.844254,358.991943 214.301559,358.181366 
	C289.571869,344.493042 348.310699,283.492401 359.185089,207.689819 
	C359.491730,205.552155 359.899933,203.429062 360.630371,201.149582 
	C361.000000,254.260345 361.000000,307.520691 361.000000,361.000000 
	C307.979309,361.000000 254.958313,361.000000 201.468658,361.000000 
z"/>
<path fill="#FBFBFD" opacity="1.000000" stroke="none" 
	d="
M107.018265,160.919144 
	C114.440773,187.763992 121.808723,214.202454 129.432037,241.557220 
	C130.195038,239.714813 130.716919,238.657227 131.080307,237.547745 
	C142.250748,203.443100 153.381287,169.325394 164.576706,135.228973 
	C168.304749,123.874931 180.261948,118.832085 190.683411,124.819786 
	C193.565338,126.475601 195.709534,130.506927 196.863831,133.900192 
	C204.105820,155.189133 210.992477,176.599228 217.955719,197.982590 
	C222.458237,211.809341 226.890991,225.658813 231.602692,240.265976 
	C243.677414,198.677704 255.549377,157.787766 267.590027,116.316833 
	C262.080811,114.266045 255.819855,111.935402 248.438507,109.187714 
	C265.185944,99.212830 281.204498,89.672066 297.836029,79.766220 
	C304.474854,97.541573 311.020752,115.068115 317.985596,133.716324 
	C310.335327,131.120193 303.718414,128.874710 296.734894,126.504837 
	C291.747681,142.413177 286.894806,157.840027 282.075226,173.277252 
	C270.735016,209.600021 259.339142,245.905792 248.180664,282.284332 
	C246.942261,286.321777 245.209930,287.757385 241.017014,287.489441 
	C235.043289,287.107666 229.012939,287.144470 223.034012,287.483002 
	C219.302872,287.694275 218.006195,286.241669 216.929092,282.834137 
	C205.107208,245.434219 193.090927,208.095749 181.126770,170.740814 
	C180.949951,170.188766 180.764801,169.639374 180.152847,167.780472 
	C178.019943,174.248337 176.250519,179.507385 174.549820,184.788589 
	C163.952103,217.697830 153.346649,250.604630 142.820648,283.536835 
	C141.846115,286.585754 140.575378,288.168091 136.939651,287.940887 
	C130.798889,287.557190 124.610817,287.671844 118.454231,287.895721 
	C114.637848,288.034485 112.937378,286.555176 111.806679,282.870605 
	C98.313515,238.901016 84.645447,194.985123 71.025749,151.054367 
	C68.284988,142.213959 65.554909,133.370224 62.669815,124.042770 
	C73.010002,124.042770 82.909920,123.564285 92.698235,124.397179 
	C94.991982,124.592361 97.843277,128.915390 98.825073,131.874481 
	C101.947258,141.284775 104.308449,150.947540 107.018265,160.919144 
z"/>
</svg>