<svg version="1.1" id="Layer_1" xmlns="http://www.w3.org/2000/svg" xmlns:xlink="http://www.w3.org/1999/xlink" x="0px" y="0px"
	 width="100%" viewBox="0 0 345 80" enable-background="new 0 0 345 80" xml:space="preserve">
<path fill="#FDFEFE" opacity="1.000000" stroke="none" 
	d="
M322.000000,81.000000 
	C306.312439,81.000000 290.624878,81.000000 274.619690,80.602051 
	C274.672699,73.828659 275.043304,67.453224 275.403625,61.254429 
	C281.174133,60.460045 286.880219,60.168568 292.319885,58.810165 
	C300.526001,56.760925 305.151611,49.892830 305.011475,41.286903 
	C304.871796,32.705284 300.237518,25.670713 292.200836,24.541391 
	C283.080505,23.259802 273.746185,23.501524 264.000000,23.058022 
	C264.000000,43.060226 264.000000,62.030113 264.000000,81.000000 
	C260.969421,81.000000 257.938812,81.000000 254.431061,80.730392 
	C253.944229,80.280670 253.934525,80.100540 254.032059,79.472565 
	C254.124771,70.390114 254.411026,61.741928 254.021881,53.124245 
	C253.500458,41.577499 244.248642,36.154316 233.646194,40.814278 
	C232.160660,41.467201 230.678955,42.128796 228.561676,43.067310 
	C228.561676,35.817131 228.561676,29.081463 228.561676,22.270500 
	C225.125458,22.270500 222.219727,22.270500 219.143784,22.270500 
	C219.143784,41.652443 219.143784,60.757744 219.112030,80.147812 
	C219.053528,80.621712 219.026764,80.810852 219.000000,81.000000 
	C215.307098,81.000000 211.614182,81.000000 207.618195,80.678543 
	C209.252914,79.541328 211.190704,78.725571 213.330719,77.824692 
	C211.813965,74.354912 210.827972,71.584610 206.375259,72.374611 
	C205.171951,72.588089 202.291000,70.105675 202.207779,68.737358 
	C201.778519,61.679768 202.008560,54.582077 202.008560,47.059441 
	C205.661423,47.059441 208.743256,47.059441 211.926056,47.059441 
	C211.926056,44.529091 211.926056,42.458633 211.926056,39.921959 
	C208.422958,39.921959 205.167145,39.921959 201.653351,39.921959 
	C201.653351,35.820778 201.653351,32.185322 201.653351,28.664183 
	C196.375000,26.430138 194.711624,27.125662 193.755768,32.310642 
	C193.031021,36.242050 192.775162,40.111538 187.936707,41.529404 
	C186.998383,41.804367 186.106049,43.854794 186.103882,45.087852 
	C186.102615,45.806835 187.859802,46.617516 188.920120,47.221375 
	C189.748993,47.693432 190.722992,47.910671 191.817001,48.308167 
	C191.817001,54.914703 191.959885,61.403439 191.773346,67.882690 
	C191.614319,73.406906 193.312164,77.866287 198.000000,81.000000 
	C191.978851,81.000000 185.957703,81.000000 179.510056,80.532654 
	C179.083557,60.848415 179.083557,41.631516 179.083557,22.203272 
	C175.781662,22.203272 172.865265,22.203272 169.428421,22.203272 
	C169.428421,24.165075 169.415619,25.954430 169.430435,27.743551 
	C169.555557,42.852619 169.869736,57.963867 169.687347,73.069153 
	C169.640717,76.930534 170.398788,79.521362 174.000000,81.000000 
	C169.310745,81.000000 164.621490,81.000000 159.634979,80.652130 
	C159.733337,79.812431 160.478760,79.316330 160.472794,78.829407 
	C160.359177,69.523575 160.481262,60.196598 159.845398,50.922623 
	C159.494247,45.801300 156.154739,42.072437 151.244537,40.208145 
	C144.349426,37.590229 134.082397,40.268761 128.961884,45.863823 
	C131.627136,50.976913 132.067627,51.128387 137.367966,48.754593 
	C146.113953,44.837646 149.891098,47.076641 150.739853,56.249172 
	C144.917145,57.821556 139.082336,59.101543 133.455048,60.997532 
	C127.475739,63.012135 125.055855,67.230309 127.022690,73.037865 
	C128.034042,76.024170 130.946579,78.366608 133.000000,81.000000 
	C125.979050,81.000000 118.958107,81.000000 111.624397,80.680626 
	C114.689629,78.578964 118.067619,76.796677 121.364738,75.057060 
	C118.862206,69.114983 115.614372,70.123772 111.969063,71.944748 
	C107.681259,74.086678 103.243538,74.300743 99.252350,71.328690 
	C96.176079,69.037926 94.780907,65.843025 95.616066,61.582573 
	C102.015549,61.582573 108.147186,61.638767 114.277359,61.568180 
	C121.745773,61.482178 123.701904,58.625393 121.382408,51.376740 
	C119.062996,44.128372 112.594337,39.322315 104.918373,39.144371 
	C96.243950,38.943279 88.882286,43.953934 86.077393,51.968323 
	C81.975990,63.687206 86.493828,73.836906 99.000000,81.000000 
	C88.979103,81.000000 78.958214,81.000000 68.566002,80.645309 
	C71.798119,69.263039 75.436310,58.246655 78.994354,47.204441 
	C82.028915,37.786827 84.971329,28.339525 87.928497,18.987614 
	C90.580788,19.487879 92.600426,19.868816 95.181786,20.355705 
	C92.883446,14.095469 90.836464,8.519892 88.617790,2.476646 
	C82.978882,5.676771 77.656860,8.697058 71.824684,12.006863 
	C74.406601,13.436007 75.973267,14.303188 77.760536,15.292478 
	C73.153320,30.703966 68.624031,45.854801 64.094734,61.005638 
	C59.403011,50.467312 55.719250,39.980244 52.169094,29.448145 
	C51.055538,26.144598 49.999611,23.105135 45.674099,23.130526 
	C41.612370,23.154366 40.454063,25.960516 39.446133,29.123373 
	C37.326397,35.775005 35.143650,42.406914 32.938725,49.030922 
	C31.454456,53.489948 29.887924,57.921589 28.358192,62.365482 
	C24.340961,51.608978 21.350531,40.965122 18.188375,30.372538 
	C16.013456,23.086985 12.486428,21.494101 4.714357,24.320599 
	C8.046731,35.037022 11.311540,45.803970 14.752329,56.514385 
	C17.386278,64.713295 20.242590,72.840759 23.000000,81.000000 
	C15.672910,81.000000 8.345819,81.000000 1.014047,81.000000 
	C1.009365,54.362282 1.009365,27.724558 1.009365,1.059514 
	C116.000008,1.059514 231.000015,1.059514 345.974548,1.059514 
	C345.974548,27.746029 345.974548,54.373028 345.974548,81.000000 
	C342.285492,81.000000 338.621948,81.000000 334.604492,80.661995 
	C334.889313,80.153397 335.599976,80.108536 336.154816,79.791245 
	C339.125671,78.092308 344.332062,77.146942 342.794861,72.811165 
	C341.148895,68.168457 336.915070,71.297676 333.756104,72.258156 
	C333.123505,72.450500 332.526520,72.770149 331.887878,72.930908 
	C323.751404,74.979073 318.229767,70.523903 318.442322,61.591576 
	C325.040131,61.591576 331.657166,61.603722 338.274170,61.588039 
	C344.452698,61.573402 345.797760,59.889782 344.634949,53.691544 
	C343.007172,45.014877 336.216492,39.250237 327.506378,39.151039 
	C317.893951,39.041561 309.870239,45.366310 308.041962,54.494118 
	C305.679321,66.289520 309.808105,74.129974 322.000000,81.000000 
z"/>
<path fill="#0C52B1" opacity="1.000000" stroke="none" 
	d="
M23.428463,81.000000 
	C20.242590,72.840759 17.386278,64.713295 14.752329,56.514385 
	C11.311540,45.803970 8.046731,35.037022 4.714357,24.320599 
	C12.486428,21.494101 16.013456,23.086985 18.188375,30.372538 
	C21.350531,40.965122 24.340961,51.608978 28.358192,62.365482 
	C29.887924,57.921589 31.454456,53.489948 32.938725,49.030922 
	C35.143650,42.406914 37.326397,35.775005 39.446133,29.123373 
	C40.454063,25.960516 41.612370,23.154366 45.674099,23.130526 
	C49.999611,23.105135 51.055538,26.144598 52.169094,29.448145 
	C55.719250,39.980244 59.403011,50.467312 64.094734,61.005638 
	C68.624031,45.854801 73.153320,30.703966 77.760536,15.292478 
	C75.973267,14.303188 74.406601,13.436007 71.824684,12.006863 
	C77.656860,8.697058 82.978882,5.676771 88.617790,2.476646 
	C90.836464,8.519892 92.883446,14.095469 95.181786,20.355705 
	C92.600426,19.868816 90.580788,19.487879 87.928497,18.987614 
	C84.971329,28.339525 82.028915,37.786827 78.994354,47.204441 
	C75.436310,58.246655 71.798119,69.263039 68.097343,80.645309 
	C65.299988,81.000000 62.599972,81.000000 59.394699,80.627174 
	C54.562271,66.951332 50.235100,53.648312 45.907925,40.345295 
	C41.309959,51.369835 37.848770,62.421871 33.976540,73.327965 
	C32.984489,76.122055 30.693975,78.455132 29.000000,81.000000 
	C27.285643,81.000000 25.571283,81.000000 23.428463,81.000000 
z"/>
<path fill="#0D53B1" opacity="1.000000" stroke="none" 
	d="
M264.454102,81.000000 
	C264.000000,62.030113 264.000000,43.060226 264.000000,23.058022 
	C273.746185,23.501524 283.080505,23.259802 292.200836,24.541391 
	C300.237518,25.670713 304.871796,32.705284 305.011475,41.286903 
	C305.151611,49.892830 300.526001,56.760925 292.319885,58.810165 
	C286.880219,60.168568 281.174133,60.460045 275.403625,61.254429 
	C275.043304,67.453224 274.672699,73.828659 274.151062,80.602051 
	C270.969391,81.000000 267.938812,81.000000 264.454102,81.000000 
M287.881805,32.105370 
	C283.664459,31.732496 279.447113,31.359625 274.660889,30.936455 
	C274.660889,35.567165 274.660553,39.354839 274.660950,43.142513 
	C274.661926,52.179714 274.863190,52.372227 283.881744,51.969639 
	C289.365234,51.724854 292.967377,49.179611 293.979614,44.834488 
	C295.345581,38.970825 293.810242,35.355389 287.881805,32.105370 
z"/>
<path fill="#1357B3" opacity="1.000000" stroke="none" 
	d="
M322.460632,81.000000 
	C309.808105,74.129974 305.679321,66.289520 308.041962,54.494118 
	C309.870239,45.366310 317.893951,39.041561 327.506378,39.151039 
	C336.216492,39.250237 343.007172,45.014877 344.634949,53.691544 
	C345.797760,59.889782 344.452698,61.573402 338.274170,61.588039 
	C331.657166,61.603722 325.040131,61.591576 318.442322,61.591576 
	C318.229767,70.523903 323.751404,74.979073 331.887878,72.930908 
	C332.526520,72.770149 333.123505,72.450500 333.756104,72.258156 
	C336.915070,71.297676 341.148895,68.168457 342.794861,72.811165 
	C344.332062,77.146942 339.125671,78.092308 336.154816,79.791245 
	C335.599976,80.108536 334.889313,80.153397 334.125305,80.661995 
	C330.307098,81.000000 326.614166,81.000000 322.460632,81.000000 
M319.944702,49.618477 
	C319.210876,51.310268 318.477020,53.002060 317.605591,55.010998 
	C324.101837,55.010998 329.823578,55.010998 335.545288,55.010998 
	C335.916290,54.614594 336.287323,54.218189 336.658325,53.821785 
	C334.893097,51.579983 333.541382,48.687317 331.269043,47.243683 
	C327.539429,44.874195 323.643036,45.877296 319.944702,49.618477 
z"/>
<path fill="#1156B2" opacity="1.000000" stroke="none" 
	d="
M99.460632,81.000000 
	C86.493828,73.836906 81.975990,63.687206 86.077393,51.968323 
	C88.882286,43.953934 96.243950,38.943279 104.918373,39.144371 
	C112.594337,39.322315 119.062996,44.128372 121.382408,51.376740 
	C123.701904,58.625393 121.745773,61.482178 114.277359,61.568180 
	C108.147186,61.638767 102.015549,61.582573 95.616066,61.582573 
	C94.780907,65.843025 96.176079,69.037926 99.252350,71.328690 
	C103.243538,74.300743 107.681259,74.086678 111.969063,71.944748 
	C115.614372,70.123772 118.862206,69.114983 121.364738,75.057060 
	C118.067619,76.796677 114.689629,78.578964 111.155823,80.680626 
	C107.307091,81.000000 103.614182,81.000000 99.460632,81.000000 
M103.671509,46.160271 
	C97.139999,47.779556 95.737442,49.515423 96.168709,55.847229 
	C99.947807,55.847229 103.780388,56.102707 107.553070,55.738247 
	C109.408531,55.558998 111.153091,54.231842 112.947838,53.424149 
	C111.843056,51.511303 111.071388,49.240345 109.525177,47.802059 
	C108.346878,46.706017 106.185997,46.666279 103.671509,46.160271 
z"/>
<path fill="#1056B2" opacity="1.000000" stroke="none" 
	d="
M133.437500,81.000000 
	C130.946579,78.366608 128.034042,76.024170 127.022690,73.037865 
	C125.055855,67.230309 127.475739,63.012135 133.455048,60.997532 
	C139.082336,59.101543 144.917145,57.821556 150.739853,56.249172 
	C149.891098,47.076641 146.113953,44.837646 137.367966,48.754593 
	C132.067627,51.128387 131.627136,50.976913 128.961884,45.863823 
	C134.082397,40.268761 144.349426,37.590229 151.244537,40.208145 
	C156.154739,42.072437 159.494247,45.801300 159.845398,50.922623 
	C160.481262,60.196598 160.359177,69.523575 160.472794,78.829407 
	C160.478760,79.316330 159.733337,79.812431 159.168854,80.652130 
	C157.611115,81.000000 156.222214,81.000000 154.287811,80.657150 
	C148.914230,75.586433 144.540512,79.964706 140.000000,81.000000 
	C137.958328,81.000000 135.916672,81.000000 133.437500,81.000000 
M137.947433,73.514351 
	C142.098343,76.132744 145.969879,74.438454 148.711227,71.616730 
	C150.467972,69.808464 150.565887,66.388618 151.833710,62.324894 
	C146.678513,63.454292 143.423157,63.937675 140.316803,64.901360 
	C135.543610,66.382141 134.941513,68.303886 137.947433,73.514351 
z"/>
<path fill="#1155B2" opacity="1.000000" stroke="none" 
	d="
M198.449982,81.000000 
	C193.312164,77.866287 191.614319,73.406906 191.773346,67.882690 
	C191.959885,61.403439 191.817001,54.914703 191.817001,48.308167 
	C190.722992,47.910671 189.748993,47.693432 188.920120,47.221375 
	C187.859802,46.617516 186.102615,45.806835 186.103882,45.087852 
	C186.106049,43.854794 186.998383,41.804367 187.936707,41.529404 
	C192.775162,40.111538 193.031021,36.242050 193.755768,32.310642 
	C194.711624,27.125662 196.375000,26.430138 201.653351,28.664183 
	C201.653351,32.185322 201.653351,35.820778 201.653351,39.921959 
	C205.167145,39.921959 208.422958,39.921959 211.926056,39.921959 
	C211.926056,42.458633 211.926056,44.529091 211.926056,47.059441 
	C208.743256,47.059441 205.661423,47.059441 202.008560,47.059441 
	C202.008560,54.582077 201.778519,61.679768 202.207779,68.737358 
	C202.291000,70.105675 205.171951,72.588089 206.375259,72.374611 
	C210.827972,71.584610 211.813965,74.354912 213.330719,77.824692 
	C211.190704,78.725571 209.252914,79.541328 207.157562,80.678543 
	C204.299988,81.000000 201.599976,81.000000 198.449982,81.000000 
z"/>
<path fill="#FBFCFE" opacity="1.000000" stroke="none" 
	d="
M29.468658,81.000000 
	C30.693975,78.455132 32.984489,76.122055 33.976540,73.327965 
	C37.848770,62.421871 41.309959,51.369835 45.907925,40.345295 
	C50.235100,53.648312 54.562271,66.951332 58.944721,80.627174 
	C49.312439,81.000000 39.624878,81.000000 29.468658,81.000000 
z"/>
<path fill="#0E53B1" opacity="1.000000" stroke="none" 
	d="
M174.416656,81.000000 
	C170.398788,79.521362 169.640717,76.930534 169.687347,73.069153 
	C169.869736,57.963867 169.555557,42.852619 169.430435,27.743551 
	C169.415619,25.954430 169.428421,24.165075 169.428421,22.203272 
	C172.865265,22.203272 175.781662,22.203272 179.083557,22.203272 
	C179.083557,41.631516 179.083557,60.848415 179.041779,80.532654 
	C177.611115,81.000000 176.222214,81.000000 174.416656,81.000000 
z"/>
<path fill="#FEFEFF" opacity="1.000000" stroke="none" 
	d="
M245.000000,81.000000 
	C239.645065,81.000000 234.290146,81.000000 228.460663,80.751381 
	C227.986130,80.502762 228.004501,80.005676 228.216782,79.648117 
	C228.571533,71.299438 228.758530,63.308743 228.834045,55.316998 
	C228.863327,52.216290 229.583801,49.977905 232.990067,48.855412 
	C240.587646,46.351707 243.671982,48.159508 244.109131,56.149586 
	C244.543762,64.093651 244.711533,72.052315 245.005707,80.253403 
	C245.015121,80.502228 245.000000,81.000000 245.000000,81.000000 
z"/>
<path fill="#EEF3FA" opacity="1.000000" stroke="none" 
	d="
M140.464645,81.000000 
	C144.540512,79.964706 148.914230,75.586433 153.871155,80.657150 
	C149.643097,81.000000 145.286194,81.000000 140.464645,81.000000 
z"/>
<path fill="#96B5DD" opacity="1.000000" stroke="none" 
	d="
M228.004501,80.005676 
	C228.004501,80.005676 227.986130,80.502762 227.993073,80.751381 
	C225.299377,81.000000 222.598740,81.000000 219.449066,81.000000 
	C219.026764,80.810852 219.053528,80.621712 219.552231,80.166679 
	C222.684280,79.935745 225.344391,79.970711 228.004501,80.005676 
z"/>
<path fill="#96B4DC" opacity="1.000000" stroke="none" 
	d="
M245.449066,81.000000 
	C245.000000,81.000000 245.015121,80.502228 245.452179,80.216415 
	C248.567780,79.927200 251.246292,79.923805 253.924820,79.920410 
	C253.934525,80.100540 253.944229,80.280670 253.976959,80.730392 
	C251.299377,81.000000 248.598740,81.000000 245.449066,81.000000 
z"/>
<path fill="#0E54B2" opacity="1.000000" stroke="none" 
	d="
M254.032059,79.472565 
	C251.246292,79.923805 248.567780,79.927200 245.442780,79.967590 
	C244.711533,72.052315 244.543762,64.093651 244.109131,56.149586 
	C243.671982,48.159508 240.587646,46.351707 232.990067,48.855412 
	C229.583801,49.977905 228.863327,52.216290 228.834045,55.316998 
	C228.758530,63.308743 228.571533,71.299438 228.216782,79.648109 
	C225.344391,79.970711 222.684280,79.935745 219.583984,79.881912 
	C219.143784,60.757744 219.143784,41.652443 219.143784,22.270500 
	C222.219727,22.270500 225.125458,22.270500 228.561676,22.270500 
	C228.561676,29.081463 228.561676,35.817131 228.561676,43.067310 
	C230.678955,42.128796 232.160660,41.467201 233.646194,40.814278 
	C244.248642,36.154316 253.500458,41.577499 254.021881,53.124245 
	C254.411026,61.741928 254.124771,70.390114 254.032059,79.472565 
z"/>
<path fill="#F2F6FB" opacity="1.000000" stroke="none" 
	d="
M288.277588,32.222435 
	C293.810242,35.355389 295.345581,38.970825 293.979614,44.834488 
	C292.967377,49.179611 289.365234,51.724854 283.881744,51.969639 
	C274.863190,52.372227 274.661926,52.179714 274.660950,43.142513 
	C274.660553,39.354839 274.660889,35.567165 274.660889,30.936455 
	C279.447113,31.359625 283.664459,31.732496 288.277588,32.222435 
z"/>
<path fill="#F3F7FB" opacity="1.000000" stroke="none" 
	d="
M320.196960,49.323681 
	C323.643036,45.877296 327.539429,44.874195 331.269043,47.243683 
	C333.541382,48.687317 334.893097,51.579983 336.658325,53.821785 
	C336.287323,54.218189 335.916290,54.614594 335.545288,55.010998 
	C329.823578,55.010998 324.101837,55.010998 317.605591,55.010998 
	C318.477020,53.002060 319.210876,51.310268 320.196960,49.323681 
z"/>
<path fill="#EAF0F8" opacity="1.000000" stroke="none" 
	d="
M104.066879,46.158440 
	C106.185997,46.666279 108.346878,46.706017 109.525177,47.802059 
	C111.071388,49.240345 111.843056,51.511303 112.947838,53.424149 
	C111.153091,54.231842 109.408531,55.558998 107.553070,55.738247 
	C103.780388,56.102707 99.947807,55.847229 96.168709,55.847229 
	C95.737442,49.515423 97.139999,47.779556 104.066879,46.158440 
z"/>
<path fill="#EEF3F9" opacity="1.000000" stroke="none" 
	d="
M137.645081,73.265823 
	C134.941513,68.303886 135.543610,66.382141 140.316803,64.901360 
	C143.423157,63.937675 146.678513,63.454292 151.833710,62.324894 
	C150.565887,66.388618 150.467972,69.808464 148.711227,71.616730 
	C145.969879,74.438454 142.098343,76.132744 137.645081,73.265823 
z"/>
</svg>